<svg xmlns="http://www.w3.org/2000/svg" viewBox="0 0 683.63 437.02"><defs><style>.cls-1{font-size:25.44px;}.cls-1,.cls-41,.cls-42{fill:#323247;}.cls-1,.cls-25,.cls-41{font-family:Montserrat-Black, Montserrat;font-weight:800;}.cls-2{fill:#b83d5d;}.cls-3{fill:#e3b5aa;}.cls-4{fill:#d78f97;}.cls-14,.cls-23,.cls-27,.cls-28,.cls-29,.cls-30,.cls-37,.cls-38,.cls-39,.cls-44,.cls-45,.cls-46,.cls-48,.cls-5,.cls-51,.cls-7,.cls-9{fill:none;stroke-miterlimit:10;}.cls-5{stroke:#c87e84;stroke-width:0.5px;}.cls-6{fill:#c87e84;}.cls-7{stroke:#b83d5d;}.cls-8{fill:#36364f;}.cls-9{stroke:#fff;stroke-width:4px;}.cls-10{fill:#9a304f;}.cls-11{fill:#c33e5d;}.cls-12,.cls-31{fill:#eba154;}.cls-13{fill:#d9751f;}.cls-13,.cls-22,.cls-49,.cls-52{opacity:0.5;}.cls-14{stroke:#dc831e;stroke-width:3px;}.cls-15{font-size:44.39px;}.cls-15,.cls-17,.cls-32{fill:#fff;}.cls-15,.cls-31,.cls-32{font-family:Montserrat-Bold, Montserrat;font-weight:700;}.cls-16{fill:#80abbd;}.cls-18{fill:#4b7195;}.cls-19{fill:#5a93a0;}.cls-19,.cls-20{opacity:0.4;}.cls-20{fill:#a3d5e6;}.cls-21{fill:#47547c;}.cls-22,.cls-25{fill:#2b2b3f;}.cls-23,.cls-27,.cls-28,.cls-29,.cls-30,.cls-37,.cls-38,.cls-39,.cls-44,.cls-45,.cls-46{stroke:#fd783d;}.cls-23{stroke-dasharray:4;}.cls-24{fill:#49496b;}.cls-25{font-size:18.43px;}.cls-26{fill:#64648e;}.cls-28{stroke-dasharray:3.83 3.83;}.cls-29{stroke-dasharray:4.12 4.12;}.cls-30{stroke-dasharray:3.89 3.89;}.cls-31{font-size:15.61px;}.cls-32{font-size:13.84px;}.cls-33{letter-spacing:-0.01em;}.cls-34{letter-spacing:-0.01em;}.cls-35{letter-spacing:-0.01em;}.cls-36{fill:#54b3cd;}.cls-37{stroke-dasharray:3.38 3.38;}.cls-38{stroke-dasharray:3.81 3.81;}.cls-39{stroke-dasharray:4.06 4.06;}.cls-40{letter-spacing:-0.01em;}.cls-41{font-size:26.41px;}.cls-43{fill:#fd783d;}.cls-44{stroke-dasharray:5.07 5.07;}.cls-45{stroke-dasharray:3.74 3.74;}.cls-46{stroke-dasharray:3.4 3.4;}.cls-47,.cls-52{fill:#0c8068;}.cls-48{stroke:#0a6d53;}.cls-49{fill:#0a6d53;}.cls-50{fill:#159a7a;}.cls-51{stroke:#0c8068;}.cls-53{fill:#dc831e;}</style></defs><title>4884783</title><g id="OBJECTS"><text class="cls-1" transform="translate(278 251.66)">&lt;/&gt;</text><path class="cls-2" d="M466.06,221.79c-1.49,32.66-33.6,57.69-57.65,59.21-31.78,2-54.49-26.67-57.66-59.21C348,193.59,358,194,365.48,182.26c9-14.24,25.88-22.11,42.93-22.11C440.25,160.15,468.07,177.84,466.06,221.79Z" transform="translate(-34.22 -64.2)"/><rect class="cls-3" x="351.84" y="213.74" width="44.69" height="55.94"/><path class="cls-3" d="M458.6,245.31c8-12.09,18.11-12.62,22.35,1.68s-9.74,26.08-21.12,21.74S458.6,245.31,458.6,245.31Z" transform="translate(-34.22 -64.2)"/><path class="cls-4" d="M468,245.63c5.34-1,8.08,14.93-3.63,15.46l2.4-5.55-2.26-4.62Z" transform="translate(-34.22 -64.2)"/><path class="cls-5" d="M462.62,263.27c6.83-7.28,1.9-12.35,1.9-12.35s6.5-13.32,9.1-3.11" transform="translate(-34.22 -64.2)"/><path class="cls-3" d="M357.84,245.31c-8-12.09-18.12-12.62-22.35,1.68s9.74,26.08,21.12,21.74S357.84,245.31,357.84,245.31Z" transform="translate(-34.22 -64.2)"/><path class="cls-4" d="M348.43,245.63c-5.34-1-8.08,14.93,3.63,15.46l-2.41-5.55,2.26-4.62Z" transform="translate(-34.22 -64.2)"/><path class="cls-5" d="M353.81,263.27c-6.82-7.28-1.9-12.35-1.9-12.35s-6.49-13.32-9.1-3.11" transform="translate(-34.22 -64.2)"/><path class="cls-6" d="M430.75,279.18V300c-16.06,21.76-44.69,14.69-44.69,14.69l.5-35.5Z" transform="translate(-34.22 -64.2)"/><path class="cls-3" d="M358.51,122.61h31.35a32.62,32.62,0,0,1,32.62,32.62v35.3a48.3,48.3,0,0,1-48.3,48.3h0a48.3,48.3,0,0,1-48.3-48.3v-35.3A32.62,32.62,0,0,1,358.51,122.61Z"/><path class="cls-7" d="M415.84,261A7.44,7.44,0,0,1,401,261" transform="translate(-34.22 -64.2)"/><path class="cls-2" d="M365.21,189s-8.46-14,2.13-26.39C367.34,162.58,375,176.68,365.21,189Z" transform="translate(-34.22 -64.2)"/><path class="cls-2" d="M369.51,185.64s-11.78,11.38-26.2,3.81C343.31,189.45,355.35,178.88,369.51,185.64Z" transform="translate(-34.22 -64.2)"/><path class="cls-8" d="M389.22,243.71c0,4-1.7,7.23-3.79,7.23s-3.8-3.24-3.8-7.23,1.7-7.23,3.8-7.23S389.22,239.71,389.22,243.71Z" transform="translate(-34.22 -64.2)"/><circle class="cls-9" cx="383.46" cy="243.17" r="19.42" transform="translate(14.04 485.26) rotate(-74.8)"/><path class="cls-8" d="M435.18,243.71c0,4-1.7,7.23-3.8,7.23s-3.79-3.24-3.79-7.23,1.7-7.23,3.79-7.23S435.18,239.71,435.18,243.71Z" transform="translate(-34.22 -64.2)"/><circle class="cls-9" cx="433.35" cy="243.17" r="19.42" transform="translate(49.11 531.68) rotate(-74.52)"/><path class="cls-2" d="M366.09,200.59s30.69-16.17,51.08-4.45,22.68,35.94,42.81,29.67c0,0,15.29-6.73-1.53-30.18s-28.33-28-50.22-22.93S372.08,181.76,366.09,200.59Z" transform="translate(-34.22 -64.2)"/><path class="cls-10" d="M364.92,200.36s10.13-13.43,24.3-17,29.87,13.89,29.87,13.89S382.76,192.09,364.92,200.36Z" transform="translate(-34.22 -64.2)"/><path class="cls-2" d="M360.18,217.25s3.42,24.93,0,40.14C360.18,257.39,355.19,218.74,360.18,217.25Z" transform="translate(-34.22 -64.2)"/><path class="cls-2" d="M456.35,217.25s-3.41,24.93,0,40.14C456.35,257.39,461.35,218.74,456.35,217.25Z" transform="translate(-34.22 -64.2)"/><path class="cls-2" d="M394.08,215.31c-5.27-2.52-14.64-5.29-23.32.89a2,2,0,0,0,.85,3.64,65.21,65.21,0,0,0,11.31.94,47.81,47.81,0,0,0,10.79-1.68A2,2,0,0,0,394.08,215.31Z" transform="translate(-34.22 -64.2)"/><path class="cls-2" d="M445,215.31c-5.27-2.52-14.64-5.29-23.33.89a2,2,0,0,0,.86,3.64,65.11,65.11,0,0,0,11.31.94,47.81,47.81,0,0,0,10.79-1.68A2,2,0,0,0,445,215.31Z" transform="translate(-34.22 -64.2)"/><path class="cls-11" d="M424.74,278.49a16.09,16.09,0,0,1-1.9,2.76c-2.58,3.11-7,6.09-14.48,6.23v0h-.55l0,0c-7-.14-11.38-2.79-14-5.72a15.66,15.66,0,0,1-2.34-3.3,16.16,16.16,0,0,1-1.57-4.29l36.47.07A15.19,15.19,0,0,1,424.74,278.49Z" transform="translate(-34.22 -64.2)"/><path class="cls-8" d="M424.74,278.49a16.09,16.09,0,0,1-1.9,2.76,34.31,34.31,0,0,0-29.06.49,15.66,15.66,0,0,1-2.34-3.3,16.16,16.16,0,0,1-1.57-4.29l36.47.07A15.19,15.19,0,0,1,424.74,278.49Z" transform="translate(-34.22 -64.2)"/><path class="cls-12" d="M563.43,472.85l-327,.34s6.1-12.76,14.88-29.67l2-3.83c12-22.87,28.12-51.76,40.71-67.43,14.5-18,48.76-30.9,72-37.93,13.56-4.09,23.38-6.2,23.38-6.2H427s8.82,1.89,21.28,5.58c23.25,6.87,58,21,74.13,38.55a86,86,0,0,1,10,13.71C552.27,418.94,563.43,472.85,563.43,472.85Z" transform="translate(-34.22 -64.2)"/><path class="cls-13" d="M563.43,472.85l-327,.34s6.1-12.76,14.88-29.67c163.16,48,249.14-30.64,268.76-51.92A17.37,17.37,0,0,1,532.35,386h.08C552.27,418.94,563.43,472.85,563.43,472.85Z" transform="translate(-34.22 -64.2)"/><line class="cls-9" x1="369.05" y1="182.27" x2="379.31" y2="182.27"/><path class="cls-3" d="M448.31,333.7c-40.47,44.53-82.22.63-82.22.63,13.56-4.1,23.38-6.21,23.38-6.21H427S435.85,330,448.31,333.7Z" transform="translate(-34.22 -64.2)"/><line class="cls-14" x1="284.82" y1="358.26" x2="284.82" y2="409.04"/><line class="cls-14" x1="284.82" y1="390.63" x2="271.18" y2="373.24"/><line class="cls-14" x1="462.62" y1="358.26" x2="462.62" y2="409.04"/><line class="cls-14" x1="462.62" y1="390.63" x2="474.73" y2="375.19"/><path class="cls-14" d="M364.15,353.66s50.19,34.27,84.16-1.67" transform="translate(-34.22 -64.2)"/><text class="cls-15" transform="translate(417.5 359.93)">x</text><path class="cls-2" d="M364.93,179.59c11.27-47.36,124.15-42.15,103.15,50.06-6.3,27.62-52.3-62.78-92-40.61a7.81,7.81,0,0,1-9.15-1.09h0C364.64,185.82,364.2,182.63,364.93,179.59Z" transform="translate(-34.22 -64.2)"/><path class="cls-16" d="M426.93,472.88l-.11,0a7.56,7.56,0,0,1-.83,0H207a9.21,9.21,0,0,1-9.2-9.21l0-.1-34.1-96.35a11.31,11.31,0,0,1,10.66-15.09H316.51a11.31,11.31,0,0,1,10.67,7.54l36.75,103.82.06.18H426.2C431.91,463.73,432.54,472.27,426.93,472.88Z" transform="translate(-34.22 -64.2)"/><ellipse class="cls-17" cx="248.03" cy="415.71" rx="16.49" ry="20.02" transform="translate(-155.93 39.05) rotate(-18.98)"/><path class="cls-18" d="M426.2,463.73H364l-.05-.19L327.18,359.72a11.3,11.3,0,0,0-10.67-7.53h-4.75s10.62.69,13.28,10.2S364,472.74,364,472.74l2.68.19H426c.28,0,.56,0,.83,0C432.55,472.38,432,463.73,426.2,463.73Z" transform="translate(-34.22 -64.2)"/><path class="cls-19" d="M426.93,472.88l-.11,0a7.56,7.56,0,0,1-.83,0H207a9.16,9.16,0,0,1-7.19-3.47c129.44,11.12,116.7-117.28,116.7-117.28a11.31,11.31,0,0,1,10.67,7.54l36.75,103.82.06.18h61.23C425.88,466.76,426.46,469.81,426.93,472.88Z" transform="translate(-34.22 -64.2)"/><path class="cls-18" d="M166.53,409.33v3.22c-5.82.67-7.25,5.6-7.25,11.59v2c0,6,1.43,10.92,7.25,11.59v3.2H55.14a8.27,8.27,0,0,1-8.27-8.27v-15a8.28,8.28,0,0,1,8.27-8.29Z" transform="translate(-34.22 -64.2)"/><path class="cls-17" d="M164.8,434.42a2.41,2.41,0,0,1-2.26,3.3l-106.45.07V412.48l106.45.07a2.39,2.39,0,0,1,1.59.61,2.32,2.32,0,0,1,.67,2.69c-.89,2.11-.85,5-.85,8.29v2C164,429.38,163.91,432.31,164.8,434.42Z" transform="translate(-34.22 -64.2)"/><path class="cls-20" d="M164.13,413.16c-2,.11-96.11,5-102.56,14.11-1.75,2.48-3.73,3.86-5.48,4.14V412.48l106.45.07A2.39,2.39,0,0,1,164.13,413.16Z" transform="translate(-34.22 -64.2)"/><path class="cls-18" d="M18,345.13h9.36a0,0,0,0,1,0,0v31.59a0,0,0,0,1,0,0H18a5.34,5.34,0,0,1-5.34-5.34V350.48A5.34,5.34,0,0,1,18,345.13Z"/><path class="cls-20" d="M164.8,434.42a2.41,2.41,0,0,1-2.26,3.3H141.28c16.89-1.92,15.83-15.79,15.83-15.79.19-.66-13.34-8.8-13.11-9.4h18.54a2.39,2.39,0,0,1,1.59.61,2.32,2.32,0,0,1,.67,2.69c-.89,2.11-.85,5-.85,8.29v2C164,429.38,163.91,432.31,164.8,434.42Z" transform="translate(-34.22 -64.2)"/><rect class="cls-20" x="27.53" y="359.08" width="102.19" height="2.28"/><rect class="cls-20" x="27.53" y="353.94" width="102.19" height="2.28"/><rect class="cls-20" x="27.53" y="365.62" width="102.19" height="2.28"/><polygon class="cls-11" points="96.81 368.86 91.37 363.44 85.94 368.86 85.94 353.94 96.81 353.94 96.81 368.86"/><path class="cls-11" d="M178.45,440.82V444c-5.83.67-7.25,5.59-7.25,11.59v2c0,6,1.42,10.93,7.25,11.59v3.21H67.06a8.28,8.28,0,0,1-8.28-8.27v-15a8.29,8.29,0,0,1,8.28-8.29Z" transform="translate(-34.22 -64.2)"/><path class="cls-17" d="M176.71,465.9a2.41,2.41,0,0,1-2.26,3.3L68,469.28V444l106.45.08a2.41,2.41,0,0,1,1.6.6,2.34,2.34,0,0,1,.66,2.7c-.88,2.11-.85,5-.85,8.29v2C175.86,460.87,175.83,463.8,176.71,465.9Z" transform="translate(-34.22 -64.2)"/><path class="cls-20" d="M176.05,444.64c-2.05.11-96.12,5-102.56,14.12-1.75,2.48-3.74,3.86-5.49,4.14V444l106.45.08A2.41,2.41,0,0,1,176.05,444.64Z" transform="translate(-34.22 -64.2)"/><path class="cls-11" d="M29.91,376.62h9.36a0,0,0,0,1,0,0v31.59a0,0,0,0,1,0,0H29.91a5.34,5.34,0,0,1-5.34-5.34V382A5.34,5.34,0,0,1,29.91,376.62Z"/><path class="cls-20" d="M176.71,465.9a2.41,2.41,0,0,1-2.26,3.3l-21.25,0C170.08,467.3,169,453.43,169,453.43c.18-.67-13.34-8.8-13.11-9.41l18.53,0a2.41,2.41,0,0,1,1.6.6,2.34,2.34,0,0,1,.66,2.7c-.88,2.11-.85,5-.85,8.29v2C175.86,460.87,175.83,463.8,176.71,465.9Z" transform="translate(-34.22 -64.2)"/><rect class="cls-20" x="39.45" y="390.57" width="102.19" height="2.28"/><rect class="cls-20" x="39.45" y="385.43" width="102.19" height="2.28"/><rect class="cls-20" x="39.45" y="397.11" width="102.19" height="2.28"/><polygon class="cls-11" points="130.46 402.33 124.72 396.61 118.98 402.33 118.98 386.57 130.46 386.57 130.46 402.33"/><path class="cls-21" d="M717.85,486.14v2.31a12.79,12.79,0,0,1-12.79,12.78H51a12.8,12.8,0,0,1-12.38-9.55,0,0,0,0,0,0,0,13,13,0,0,1-.4-3.2v-2.31A12.78,12.78,0,0,1,51,473.36h654A12.79,12.79,0,0,1,717.85,486.14Z" transform="translate(-34.22 -64.2)"/><path class="cls-22" d="M717.85,486.14v2.31a12.79,12.79,0,0,1-12.79,12.78H51a12.8,12.8,0,0,1-12.38-9.55,0,0,0,0,0,0,0c-.27-2-.4-3.2-.4-3.2C405,501.23,705.06,473.36,705.06,473.36A12.79,12.79,0,0,1,717.85,486.14Z" transform="translate(-34.22 -64.2)"/><path class="cls-12" d="M701.54,135.73c0-.08,0-.16,0-.24s0-.15,0-.23a28.11,28.11,0,0,0,3.59-1.95,30.72,30.72,0,0,0,3.76-3l-.26-1a25.81,25.81,0,0,0-1.11-3.39c-.23-.54-.5-1.07-.76-1.6a11.19,11.19,0,0,0-.85-1.56l-.54-.89a26.73,26.73,0,0,0-4.8.5,25.32,25.32,0,0,0-3.91,1.15l-.33-.33a25.18,25.18,0,0,0,1.65-8.71l-.89-.54a10.39,10.39,0,0,0-1.57-.86c-.53-.26-1.06-.53-1.61-.76a27.05,27.05,0,0,0-3.37-1.1l-1-.26a28.3,28.3,0,0,0-3,3.76,27.44,27.44,0,0,0-2,3.59l-.22,0-.24,0a26.31,26.31,0,0,0-2-3.59,28.2,28.2,0,0,0-3-3.76l-1,.26a26.67,26.67,0,0,0-3.38,1.1c-.54.23-1.07.5-1.61.76a10.9,10.9,0,0,0-1.57.86l-.89.54a28.45,28.45,0,0,0,.51,4.79,26.61,26.61,0,0,0,1.15,3.92l-.33.33a25.65,25.65,0,0,0-3.91-1.15,26.83,26.83,0,0,0-4.8-.5l-.55.89a13.75,13.75,0,0,0-.85,1.56c-.25.53-.52,1.06-.75,1.6a24.41,24.41,0,0,0-1.11,3.39l-.26,1a30,30,0,0,0,3.76,3,27.35,27.35,0,0,0,3.58,1.95c0,.08,0,.15,0,.23s0,.16,0,.24a26.3,26.3,0,0,0-3.58,2,28.2,28.2,0,0,0-3.76,3l.26,1a24.72,24.72,0,0,0,1.11,3.38c.23.54.5,1.07.75,1.61a14.51,14.51,0,0,0,.85,1.55l.55.9a27.78,27.78,0,0,0,4.8-.5,25.67,25.67,0,0,0,3.91-1.16l.33.33a26.61,26.61,0,0,0-1.15,3.92,28.68,28.68,0,0,0-.51,4.8l.89.55a13.13,13.13,0,0,0,1.57.84c.54.26,1.07.53,1.61.76a23.81,23.81,0,0,0,3.38,1.1l1,.26a24.81,24.81,0,0,0,5-7.34l.24,0,.22,0a28.79,28.79,0,0,0,2,3.59,27.6,27.6,0,0,0,3,3.75l1-.26a24.1,24.1,0,0,0,3.37-1.1c.55-.23,1.08-.5,1.61-.76a12.4,12.4,0,0,0,1.57-.84l.89-.55a25.18,25.18,0,0,0-1.65-8.72c.11-.1.21-.21.33-.33a25.34,25.34,0,0,0,3.91,1.16,27.68,27.68,0,0,0,4.8.5l.54-.9a11.67,11.67,0,0,0,.85-1.55c.26-.54.53-1.07.76-1.61a26.17,26.17,0,0,0,1.11-3.38l.26-1a28.86,28.86,0,0,0-3.76-3A27,27,0,0,0,701.54,135.73Zm-17.24,8a8.25,8.25,0,1,1,8.25-8.25A8.25,8.25,0,0,1,684.3,143.74Z" transform="translate(-34.22 -64.2)"/><polyline class="cls-23" points="626.42 84.03 570.73 84.03 570.73 138.87 586.19 138.87"/><rect class="cls-17" x="587.52" y="168.22" width="30.61" height="5.47"/><rect class="cls-17" x="587.52" y="178.34" width="47.07" height="5.47"/><rect class="cls-17" x="587.52" y="188.47" width="16.03" height="5.47"/><rect class="cls-12" x="610.09" y="188.47" width="16.03" height="5.47"/><rect class="cls-12" x="631.86" y="188.47" width="23.02" height="5.47"/><rect class="cls-12" x="640.9" y="178.34" width="13.98" height="5.47"/><rect class="cls-12" x="624.26" y="168.22" width="30.61" height="5.47"/><rect class="cls-17" x="665.07" y="132.79" width="1.02" height="60.98"/><rect class="cls-17" x="587.99" y="135.03" width="31.48" height="5.63"/><rect class="cls-17" x="587.99" y="145.44" width="48.4" height="5.63"/><rect class="cls-17" x="587.99" y="155.85" width="16.48" height="5.63"/><rect class="cls-12" x="611.21" y="155.85" width="16.48" height="5.63"/><rect class="cls-12" x="633.59" y="155.85" width="23.67" height="5.63"/><rect class="cls-12" x="642.89" y="145.44" width="14.38" height="5.63"/><rect class="cls-12" x="625.78" y="135.03" width="31.48" height="5.63"/><rect class="cls-24" x="457.89" y="30.17" width="90.59" height="178.02"/><rect class="cls-17" x="468.21" y="68.03" width="68.02" height="7.22"/><rect class="cls-17" x="468.21" y="84.02" width="45.02" height="7.22"/><rect class="cls-12" x="519.91" y="84.02" width="16.31" height="7.22"/><rect class="cls-12" x="494.08" y="100.02" width="42.15" height="7.22"/><rect class="cls-17" x="468.21" y="100.02" width="19.74" height="7.22"/><rect class="cls-17" x="468.21" y="116.02" width="35.95" height="7.22"/><rect class="cls-12" x="509.7" y="116.02" width="26.53" height="7.22"/><rect class="cls-12" x="487.95" y="132.01" width="48.28" height="7.22"/><rect class="cls-17" x="468.21" y="132.01" width="14.59" height="7.22"/><rect class="cls-17" x="468.21" y="148.01" width="29.19" height="7.22"/><rect class="cls-12" x="502.22" y="148.01" width="34.01" height="7.22"/><path class="cls-12" d="M568.44,254.84v2L561,259.71v-2l5.2-1.89L561,254V252Z" transform="translate(-34.22 -64.2)"/><path class="cls-12" d="M547.28,252V254l-5.21,1.91,5.21,1.89v2l-7.45-2.83v-2Z" transform="translate(-34.22 -64.2)"/><path class="cls-12" d="M556.08,246.53h2.33l-5.53,15.78h-2.33Z" transform="translate(-34.22 -64.2)"/><path class="cls-12" d="M534.26,115.92v2.66l-9.76,3.71v-2.56l6.83-2.48-6.83-2.5v-2.54Z" transform="translate(-34.22 -64.2)"/><path class="cls-12" d="M516.32,112.21v2.54l-6.83,2.5,6.83,2.48v2.56l-9.76-3.71v-2.66Z" transform="translate(-34.22 -64.2)"/><text class="cls-25" transform="translate(458.48 15.66)">HTML</text><path class="cls-26" d="M72.92,276.75a22.46,22.46,0,0,0-6.41-4.42l-.13-.06A22.78,22.78,0,0,0,48.16,272l-.46.2A22.75,22.75,0,1,0,78.81,286.6a23.58,23.58,0,0,0-1.06-2.9A22.54,22.54,0,0,0,72.92,276.75ZM63.4,307.38a15.77,15.77,0,0,1-20.18-22.13l.05-.1a15.7,15.7,0,0,1,7.27-6.6,16,16,0,0,1,1.82-.67l.19-.06A15.71,15.71,0,0,1,62,278h0a15.91,15.91,0,0,1,6.72,4.41,15.37,15.37,0,0,1,2.67,4.12,16.17,16.17,0,0,1,1,2.92A15.81,15.81,0,0,1,63.4,307.38Z" transform="translate(-34.22 -64.2)"/><path class="cls-12" d="M66.51,272.33A22.71,22.71,0,0,1,77.75,283.7a23.58,23.58,0,0,1,1.06,2.9l-6.45,2.86a16.17,16.17,0,0,0-1-2.92,15.37,15.37,0,0,0-2.67-4.12A15.91,15.91,0,0,0,62,278h0l4.42-5.73" transform="translate(-34.22 -64.2)"/><line class="cls-12" x1="32.29" y1="208.12" x2="27.77" y2="213.81"/><path class="cls-2" d="M62,278h0a15.71,15.71,0,0,0-9.41-.18l-.19.06L48.16,272a22.78,22.78,0,0,1,18.22.28" transform="translate(-34.22 -64.2)"/><line class="cls-27" x1="24.56" y1="251.51" x2="24.56" y2="253.51"/><line class="cls-28" x1="24.56" y1="257.34" x2="24.56" y2="286.04"/><polyline class="cls-27" points="24.56 287.96 24.56 289.96 26.56 289.96"/><line class="cls-29" x1="30.68" y1="289.96" x2="86.24" y2="289.96"/><polyline class="cls-27" points="88.3 289.96 90.3 289.96 90.3 287.96"/><line class="cls-30" x1="90.3" y1="284.06" x2="90.3" y2="254.85"/><line class="cls-27" x1="90.3" y1="252.9" x2="90.3" y2="250.9"/><rect class="cls-24" x="66.31" y="19.09" width="192.85" height="229.92"/><rect class="cls-26" x="66.31" y="7.89" width="192.85" height="29.18"/><path class="cls-12" d="M271.06,297.4v1.89l-6.94,2.64v-1.82l4.86-1.76-4.86-1.78v-1.81Z" transform="translate(-34.22 -64.2)"/><path class="cls-12" d="M251.34,294.76v1.81l-4.85,1.78,4.85,1.76v1.82l-6.93-2.64V297.4Z" transform="translate(-34.22 -64.2)"/><text class="cls-31" transform="translate(220.68 238.59)">/</text><path class="cls-12" d="M146.22,119.88v2.36l-8.64,3.29v-2.27l6-2.2-6-2.21v-2.26Z" transform="translate(-34.22 -64.2)"/><path class="cls-12" d="M130.32,116.59v2.26l-6,2.21,6,2.2v2.27l-8.65-3.29v-2.36Z" transform="translate(-34.22 -64.2)"/><text class="cls-32" transform="translate(78.01 28.67)"><tspan class="cls-33">W</tspan><tspan x="15.89" y="0">EB D</tspan><tspan class="cls-34" x="51.12" y="0">E</tspan><tspan class="cls-33" x="60.27" y="0">V</tspan><tspan x="70.39" y="0">E</tspan><tspan class="cls-35" x="79.68" y="0">L</tspan><tspan x="87.88" y="0">O</tspan><tspan class="cls-34" x="99.56" y="0">P</tspan><tspan x="109.56" y="0">ING</tspan></text><rect class="cls-36" x="99.65" y="75.35" width="56.69" height="10.38"/><rect class="cls-12" x="164.32" y="75.35" width="28.34" height="10.38"/><rect class="cls-17" x="199.19" y="75.35" width="39.04" height="10.38"/><rect class="cls-36" x="99.65" y="93.88" width="26.46" height="10.38"/><rect class="cls-12" x="133.3" y="93.88" width="45.19" height="10.38"/><rect class="cls-17" x="185.86" y="93.88" width="52.37" height="10.38"/><rect class="cls-36" x="99.65" y="112.42" width="34.83" height="10.38"/><rect class="cls-12" x="140.14" y="112.42" width="65.51" height="10.38"/><rect class="cls-17" x="212.67" y="112.42" width="25.56" height="10.38"/><rect class="cls-36" x="99.65" y="130.95" width="43.91" height="10.38"/><rect class="cls-12" x="150.04" y="130.95" width="42.62" height="10.38"/><rect class="cls-17" x="199.19" y="130.95" width="39.04" height="10.38"/><rect class="cls-36" x="99.65" y="149.49" width="19.26" height="10.38"/><rect class="cls-12" x="125.38" y="149.49" width="38.16" height="10.38"/><rect class="cls-17" x="169.48" y="149.49" width="68.75" height="10.38"/><rect class="cls-36" x="99.65" y="168.02" width="55.07" height="10.38"/><rect class="cls-12" x="161.56" y="168.02" width="16.93" height="10.38"/><rect class="cls-17" x="185.86" y="168.02" width="52.37" height="10.38"/><rect class="cls-36" x="99.65" y="186.55" width="71.71" height="10.38"/><rect class="cls-12" x="177.4" y="186.55" width="29.34" height="10.38"/><rect class="cls-17" x="212.67" y="186.55" width="25.56" height="10.38"/><rect class="cls-36" x="99.65" y="205.09" width="21.96" height="10.38"/><rect class="cls-12" x="127.99" y="205.09" width="26.73" height="10.38"/><rect class="cls-17" x="161.56" y="205.09" width="76.67" height="10.38"/><rect class="cls-17" x="245.81" y="75.35" width="2.11" height="140.12"/><circle class="cls-17" cx="81.82" cy="80.54" r="5.19"/><circle class="cls-17" cx="81.82" cy="99.07" r="5.19"/><circle class="cls-17" cx="81.82" cy="117.61" r="5.19"/><circle class="cls-17" cx="81.82" cy="136.14" r="5.19"/><circle class="cls-17" cx="81.82" cy="154.68" r="5.19"/><circle class="cls-17" cx="81.82" cy="173.21" r="5.19"/><circle class="cls-17" cx="81.82" cy="191.74" r="5.19"/><circle class="cls-17" cx="81.82" cy="210.28" r="5.19"/><path class="cls-2" d="M284.79,88.3a5.3,5.3,0,1,1-5.3-5.3A5.29,5.29,0,0,1,284.79,88.3Z" transform="translate(-34.22 -64.2)"/><path class="cls-17" d="M271.7,88.19a5.34,5.34,0,1,1-5.34-5.33A5.33,5.33,0,0,1,271.7,88.19Z" transform="translate(-34.22 -64.2)"/><rect class="cls-21" x="284.82" y="46.13" width="18.68" height="5.23"/><rect class="cls-26" x="284.82" y="36.81" width="57.15" height="5.23"/><line class="cls-27" x1="317.84" y1="52.36" x2="317.84" y2="54.36"/><line class="cls-37" x1="317.84" y1="57.73" x2="317.84" y2="69.55"/><polyline class="cls-27" points="317.84 71.24 317.84 73.24 319.84 73.24"/><line class="cls-38" x1="323.65" y1="73.24" x2="382.69" y2="73.24"/><polyline class="cls-27" points="384.6 73.24 386.6 73.24 386.6 71.24"/><line class="cls-39" x1="386.59" y1="67.18" x2="386.59" y2="61.1"/><line class="cls-27" x1="386.59" y1="59.07" x2="386.59" y2="57.07"/><text class="cls-25" transform="translate(284.82 22.99)"><tspan class="cls-40">C</tspan><tspan x="13.53" y="0">SS</tspan></text><path class="cls-26" d="M436,100a16.9,16.9,0,0,0-.74-2,15.69,15.69,0,0,0-7.8-7.88.15.15,0,0,0-.09,0,15.64,15.64,0,0,0-12.63-.2l-.32.14a15.79,15.79,0,0,0-9.05,17.49,15.78,15.78,0,0,0,31,0A15.63,15.63,0,0,0,436,100Zm-10.69,14.41a11,11,0,0,1-14.46-5.54,11.43,11.43,0,0,1-.51-1.38,10.92,10.92,0,0,1,1-8.43l0-.07a10.85,10.85,0,0,1,5.05-4.58,9.5,9.5,0,0,1,1.26-.46.28.28,0,0,1,.13,0,10.85,10.85,0,0,1,6.53.12h0A10.94,10.94,0,0,1,429,97.06a10.68,10.68,0,0,1,1.85,2.85,11.26,11.26,0,0,1,.68,2,11,11,0,0,1-6.21,12.43Z" transform="translate(-34.22 -64.2)"/><path class="cls-2" d="M436.29,107.45h-5a10.81,10.81,0,0,0,.18-5.51,11.26,11.26,0,0,0-.68-2A10.68,10.68,0,0,0,429,97.06,10.94,10.94,0,0,0,424.3,94h0a10.85,10.85,0,0,0-6.53-.12.28.28,0,0,0-.13,0,9.5,9.5,0,0,0-1.26.46A10.85,10.85,0,0,0,411.31,99l0,.07a10.92,10.92,0,0,0-1,8.43h-5A15.79,15.79,0,0,1,414.39,90l.32-.14a15.64,15.64,0,0,1,12.63.2.15.15,0,0,1,.09,0,15.69,15.69,0,0,1,7.8,7.88,16.9,16.9,0,0,1,.74,2A15.63,15.63,0,0,1,436.29,107.45Z" transform="translate(-34.22 -64.2)"/><rect class="cls-26" x="307.25" y="46.13" width="34.73" height="5.23"/><text class="cls-41" transform="translate(14.44 30.17)">{ }</text><rect class="cls-17" x="14.29" y="59.74" width="20.54" height="9.8"/><rect class="cls-17" x="14.29" y="76.87" width="20.54" height="9.8"/><rect class="cls-12" x="14.29" y="93.99" width="20.54" height="9.8"/><rect class="cls-12" x="14.29" y="111.12" width="20.54" height="9.8"/><rect class="cls-12" x="14.29" y="128.24" width="20.54" height="9.8"/><rect class="cls-12" x="14.29" y="145.37" width="20.54" height="9.8"/><rect class="cls-12" x="14.29" y="162.49" width="20.54" height="9.8"/><path class="cls-42" d="M649.49,316.69c0-.07,0-.14,0-.21s0-.13,0-.19a23.83,23.83,0,0,0,3.07-1.68,24.61,24.61,0,0,0,3.21-2.59l-.22-.88a21.64,21.64,0,0,0-.94-2.89c-.2-.46-.43-.92-.65-1.37a9,9,0,0,0-.73-1.33l-.46-.77a23.74,23.74,0,0,0-4.11.43,21.94,21.94,0,0,0-3.34,1l-.29-.29a22,22,0,0,0,1-3.35,22.68,22.68,0,0,0,.44-4.1l-.77-.46a8.6,8.6,0,0,0-1.33-.73c-.46-.22-.91-.45-1.38-.65a21.18,21.18,0,0,0-2.89-.94l-.87-.23a24.78,24.78,0,0,0-2.6,3.22,23,23,0,0,0-1.67,3.07l-.2,0-.2,0a20.93,20.93,0,0,0-1.67-3.07,24.69,24.69,0,0,0-2.59-3.22l-.87.23a21.32,21.32,0,0,0-2.9.94c-.46.2-.91.43-1.38.65a9.09,9.09,0,0,0-1.33.73l-.77.46a24.63,24.63,0,0,0,.44,4.1,22.06,22.06,0,0,0,1,3.35l-.29.29a22.28,22.28,0,0,0-3.34-1,23.84,23.84,0,0,0-4.11-.43l-.47.77a11.31,11.31,0,0,0-.73,1.33c-.21.45-.44.91-.64,1.37a21.64,21.64,0,0,0-.94,2.89l-.22.88a24,24,0,0,0,3.21,2.59,23.08,23.08,0,0,0,3.06,1.68c0,.06,0,.12,0,.19s0,.14,0,.21a21.91,21.91,0,0,0-3.06,1.67,24,24,0,0,0-3.21,2.59l.22.87a21.78,21.78,0,0,0,.94,2.9c.2.46.43.91.64,1.37a12.18,12.18,0,0,0,.73,1.33l.47.77a23.84,23.84,0,0,0,4.11-.43,22.28,22.28,0,0,0,3.34-1,4,4,0,0,0,.29.29,22.28,22.28,0,0,0-1,3.34,24.86,24.86,0,0,0-.44,4.1l.77.48a13.1,13.1,0,0,0,1.33.72c.47.22.92.45,1.38.65a21.32,21.32,0,0,0,2.9.94l.87.22a24.61,24.61,0,0,0,2.59-3.21,22,22,0,0,0,1.67-3.07l.2,0,.2,0a24.31,24.31,0,0,0,1.67,3.07,24.71,24.71,0,0,0,2.6,3.21l.87-.22a21.18,21.18,0,0,0,2.89-.94c.47-.2.92-.43,1.38-.65a12.11,12.11,0,0,0,1.33-.72l.77-.48a22.88,22.88,0,0,0-.44-4.1,22.26,22.26,0,0,0-1-3.34c.1-.09.19-.19.29-.29a21.94,21.94,0,0,0,3.34,1,23.74,23.74,0,0,0,4.11.43l.46-.77a9.53,9.53,0,0,0,.73-1.33c.22-.46.45-.91.65-1.37a21.78,21.78,0,0,0,.94-2.9l.22-.87a24.61,24.61,0,0,0-3.21-2.59A22.59,22.59,0,0,0,649.49,316.69Zm-14.75,6.85a7.06,7.06,0,1,1,7.06-7.06A7.06,7.06,0,0,1,634.74,323.54Z" transform="translate(-34.22 -64.2)"/><rect class="cls-2" x="541.1" y="226.28" width="9.32" height="41.97"/><rect class="cls-26" x="527.35" y="244.77" width="9.99" height="23.48"/><rect class="cls-43" x="513.52" y="252.28" width="9.99" height="15.96"/><line class="cls-27" x1="511.75" y1="261.56" x2="509.75" y2="261.56"/><line class="cls-44" x1="504.68" y1="261.56" x2="497.07" y2="261.56"/><polyline class="cls-27" points="494.54 261.56 492.54 261.56 492.54 263.56"/><line class="cls-45" x1="492.54" y1="267.3" x2="492.54" y2="295.35"/><polyline class="cls-27" points="492.54 297.22 492.54 299.22 494.54 299.22"/><line class="cls-46" x1="497.93" y1="299.22" x2="509.82" y2="299.22"/><line class="cls-27" x1="511.52" y1="299.22" x2="513.52" y2="299.22"/><rect class="cls-17" x="516.68" y="297.36" width="26.43" height="4.72"/><rect class="cls-17" x="516.68" y="306.1" width="18.28" height="4.72"/><rect class="cls-17" x="516.68" y="314.84" width="23.14" height="4.72"/><rect class="cls-12" x="544.61" y="314.84" width="5.4" height="4.72"/><rect class="cls-12" x="554.96" y="314.84" width="19.87" height="4.72"/><rect class="cls-12" x="540.82" y="306.1" width="34.01" height="4.72"/><rect class="cls-12" x="548.41" y="297.36" width="26.43" height="4.72"/><rect class="cls-2" x="648.06" y="249.72" width="17.41" height="8.31"/><rect class="cls-2" x="648.06" y="264.24" width="17.41" height="8.31"/><rect class="cls-2" x="648.06" y="278.76" width="17.41" height="8.31"/><rect class="cls-2" x="648.06" y="293.28" width="17.41" height="8.31"/><rect class="cls-17" x="648.06" y="307.8" width="17.41" height="8.31"/><rect class="cls-17" x="648.06" y="322.32" width="17.41" height="8.31"/><rect class="cls-17" x="648.06" y="336.83" width="17.41" height="8.31"/><path class="cls-47" d="M623.77,433.16a26.68,26.68,0,0,1-16.51-3.88c-18.37-11.37-22.21-43.43-22.47-45.84.16.74,2,4.66,21.07,17.51q2.37,1.6,4.37,3.26l.07.05C626.94,418,623.77,433.16,623.77,433.16Z" transform="translate(-34.22 -64.2)"/><path class="cls-48" d="M584.78,383.3s17.15,42.1,36.18,46.53" transform="translate(-34.22 -64.2)"/><path class="cls-49" d="M623.77,433.16a26.68,26.68,0,0,1-16.51-3.88c3.65-8.65,3-25.07,3-25.07l.07.05C626.94,418,623.77,433.16,623.77,433.16Z" transform="translate(-34.22 -64.2)"/><path class="cls-47" d="M672.53,385.79c-.08.44-.33,2-.85,4.29h0c-2.71,12.13-12.49,44.79-38.81,41.52a21.21,21.21,0,0,1,.45-7c1.3-6.16,5.48-15.34,18.21-23C670.42,390.15,672.33,386.48,672.53,385.79Z" transform="translate(-34.22 -64.2)"/><path class="cls-48" d="M671.68,388.38s-13.5,35-36.94,42.13" transform="translate(-34.22 -64.2)"/><path class="cls-49" d="M671.68,390.08h0c-2.71,12.13-12.49,44.79-38.81,41.52a21.21,21.21,0,0,1,.45-7h0C655.24,425.79,671.68,390.08,671.68,390.08Z" transform="translate(-34.22 -64.2)"/><path class="cls-50" d="M631.46,432.78c-.65,1.13-10.26-2.87-14.59-14.42h0c-2.6-6.94-3.29-16.62,1-29.54,11.28-33.94,6.63-40.33,6.49-40.51a41.08,41.08,0,0,1,16.36,16.82l0,.05C647.71,378.25,650.42,399.79,631.46,432.78Z" transform="translate(-34.22 -64.2)"/><path class="cls-51" d="M624.36,348.3s14.72,18.57,9.11,53.9-2,30.58-2,30.58" transform="translate(-34.22 -64.2)"/><path class="cls-52" d="M631.46,432.78c-.65,1.13-10.26-2.87-14.59-14.42,24.23,6.88,23.85-53.23,23.85-53.23l0,.05C647.71,378.25,650.42,399.79,631.46,432.78Z" transform="translate(-34.22 -64.2)"/><path class="cls-47" d="M584.77,383.3l0,.12A.56.56,0,0,1,584.77,383.3Z" transform="translate(-34.22 -64.2)"/><path class="cls-12" d="M650.09,432.27V459.4a14.37,14.37,0,0,1-14.37,14.37H623a14.35,14.35,0,0,1-12.27-6.89h0a14.31,14.31,0,0,1-2.09-7.48V432.27Z" transform="translate(-34.22 -64.2)"/><rect class="cls-12" x="571.8" y="364.55" width="46.63" height="3.52" rx="1.06"/><path class="cls-53" d="M650.09,432.27V459.4a14.37,14.37,0,0,1-14.37,14.37H623a14.35,14.35,0,0,1-12.27-6.89c30.39,9.54,37-12.81,35.82-21.67s-12.13-12.94-12.13-12.94Z" transform="translate(-34.22 -64.2)"/></g></svg>